<svg width="4128" height="716" viewBox="0 0 4128 716" fill="none" xmlns="http://www.w3.org/2000/svg">
<path d="M290 22.9999C290 18.3333 291.333 14.6666 294 12C296.667 9.33329 300.333 7.99995 305 7.99995H461C465.667 7.99995 469.333 9.33329 472 12C474.667 14.6666 476 18.3333 476 22.9999V693C476 697.667 474.667 701.333 472 704C469.333 706.667 465.667 708 461 708H283C274.333 708 269 703.667 267 695L191 392C190.333 390 189 389 187 389C185 389 184 390.333 184 393L186 693C186 697.667 184.667 701.333 182 704C179.333 706.667 175.667 708 171 708H15C10.3333 708 6.66667 706.667 4 704C1.33333 701.333 5.36442e-07 697.667 5.36442e-07 693V22.9999C5.36442e-07 18.3333 1.33333 14.6666 4 12C6.66667 9.33329 10.3333 7.99995 15 7.99995H191C199.667 7.99995 205 12.3333 207 21L284 325C284.667 327.667 286 329 288 329C290 329 291 327.667 291 325L290 22.9999ZM543.32 708C538.654 708 534.987 706.667 532.32 704C529.654 701.333 528.32 697.667 528.32 693V22.9999C528.32 18.3333 529.654 14.6666 532.32 12C534.987 9.33329 538.654 7.99995 543.32 7.99995H701.32C705.987 7.99995 709.654 9.33329 712.32 12C714.987 14.6666 716.32 18.3333 716.32 22.9999V693C716.32 697.667 714.987 701.333 712.32 704C709.654 706.667 705.987 708 701.32 708H543.32ZM981.555 716C915.555 716 862.555 696.667 822.555 658C782.555 619.333 762.555 567.667 762.555 503V211C762.555 146.333 782.221 95 821.555 57C861.555 19 914.888 -4.29153e-06 981.555 -4.29153e-06C1047.55 -4.29153e-06 1100.55 19 1140.55 57C1180.55 95 1200.55 146.333 1200.55 211V216C1200.55 220.667 1199.22 224.667 1196.55 228C1193.89 230.667 1190.22 232 1185.55 232L1027.55 237C1017.55 237 1012.55 232.333 1012.55 223V198C1012.55 186.667 1009.55 177.667 1003.55 171C998.221 164.333 990.888 161 981.555 161C972.221 161 964.555 164.333 958.555 171C953.221 177.667 950.555 186.667 950.555 198V519C950.555 530.333 953.221 539.333 958.555 546C964.555 552 972.221 555 981.555 555C990.888 555 998.221 552 1003.55 546C1009.55 539.333 1012.55 530.333 1012.55 519V492C1012.55 482.667 1017.55 478 1027.55 478L1185.55 483C1190.22 483 1193.89 484.667 1196.55 488C1199.22 490.667 1200.55 494.333 1200.55 499V503C1200.55 545.667 1191.22 583.333 1172.55 616C1154.55 648 1128.89 672.667 1095.55 690C1062.89 707.333 1024.89 716 981.555 716ZM1460.14 716C1392.81 716 1338.81 696.667 1298.14 658C1258.14 619.333 1238.14 567.333 1238.14 502V214C1238.14 148.667 1258.14 96.6666 1298.14 58C1338.81 19.3333 1392.81 -4.29153e-06 1460.14 -4.29153e-06C1527.47 -4.29153e-06 1581.14 19.3333 1621.14 58C1661.81 96.6666 1682.14 148.667 1682.14 214V502C1682.14 567.333 1661.81 619.333 1621.14 658C1581.14 696.667 1527.47 716 1460.14 716ZM1460.14 555C1470.81 555 1479.14 551 1485.14 543C1491.14 535 1494.14 524 1494.14 510V206C1494.14 192 1491.14 181 1485.14 173C1479.14 165 1470.81 161 1460.14 161C1449.47 161 1441.14 165 1435.14 173C1429.14 181 1426.14 192 1426.14 206V510C1426.14 524 1429.14 535 1435.14 543C1441.14 551 1449.47 555 1460.14 555ZM1743.52 708C1738.85 708 1735.18 706.667 1732.52 704C1729.85 701.333 1728.52 697.667 1728.52 693V22.9999C1728.52 18.3333 1729.85 14.6666 1732.52 12C1735.18 9.33329 1738.85 7.99995 1743.52 7.99995H1940.52C1984.52 7.99995 2023.18 16.3333 2056.52 33C2090.52 49.6666 2116.85 73.3333 2135.52 104C2154.18 134 2163.52 168.667 2163.52 208V508C2163.52 547.333 2154.18 582.333 2135.52 613C2116.85 643 2090.52 666.333 2056.52 683C2023.18 699.667 1984.52 708 1940.52 708H1743.52ZM1916.52 541C1916.52 545 1918.52 547 1922.52 547L1936.52 546C1947.18 545.333 1956.18 540.333 1963.52 531C1970.85 521.667 1974.85 509.667 1975.52 495V220C1975.52 204.667 1971.85 192.333 1964.52 183C1957.18 173.667 1947.52 169 1935.52 169H1922.52C1918.52 169 1916.52 171 1916.52 175V541ZM2611.91 154C2611.91 158.667 2610.58 162.333 2607.91 165C2605.25 167.667 2601.58 169 2596.91 169H2405.91C2401.91 169 2399.91 171 2399.91 175V271C2399.91 275 2401.91 277 2405.91 277H2504.91C2509.58 277 2513.25 278.333 2515.91 281C2518.58 283.667 2519.91 287.333 2519.91 292V423C2519.91 427.667 2518.58 431.333 2515.91 434C2513.25 436.667 2509.58 438 2504.91 438H2405.91C2401.91 438 2399.91 440 2399.91 444V541C2399.91 545 2401.91 547 2405.91 547H2596.91C2601.58 547 2605.25 548.333 2607.91 551C2610.58 553.667 2611.91 557.333 2611.91 562V693C2611.91 697.667 2610.58 701.333 2607.91 704C2605.25 706.667 2601.58 708 2596.91 708H2226.91C2222.25 708 2218.58 706.667 2215.91 704C2213.25 701.333 2211.91 697.667 2211.91 693V22.9999C2211.91 18.3333 2213.25 14.6666 2215.91 12C2218.58 9.33329 2222.25 7.99995 2226.91 7.99995H2596.91C2601.58 7.99995 2605.25 9.33329 2607.91 12C2610.58 14.6666 2611.91 18.3333 2611.91 22.9999V154ZM2986.25 19C2990.25 11.6666 2996.25 7.99995 3004.25 7.99995H3160.25C3164.92 7.99995 3168.58 9.33329 3171.25 12C3173.92 14.6666 3175.25 18.3333 3175.25 22.9999V693C3175.25 697.667 3173.92 701.333 3171.25 704C3168.58 706.667 3164.92 708 3160.25 708H3002.25C2997.58 708 2993.92 706.667 2991.25 704C2988.58 701.333 2987.25 697.667 2987.25 693V286C2987.25 283.333 2986.25 281.667 2984.25 281C2982.92 280.333 2981.58 281.333 2980.25 284L2923.25 380L2913.25 398H2912.25L2846.25 284C2844.92 281.333 2843.25 280.333 2841.25 281C2839.92 281 2839.25 282.667 2839.25 286V693C2839.25 697.667 2837.92 701.333 2835.25 704C2832.58 706.667 2828.92 708 2824.25 708H2666.25C2661.58 708 2657.92 706.667 2655.25 704C2652.58 701.333 2651.25 697.667 2651.25 693V22.9999C2651.25 18.3333 2652.58 14.6666 2655.25 12C2657.92 9.33329 2661.58 7.99995 2666.25 7.99995H2822.25C2830.92 7.99995 2836.92 11.6666 2840.25 19L2910.25 147C2911.58 149 2912.92 150.333 2914.25 151C2916.25 151 2917.58 149.667 2918.25 147L2986.25 19ZM3437.66 716C3394.32 716 3356.32 707 3323.66 689C3290.99 671 3265.66 645.667 3247.66 613C3229.66 580.333 3220.66 542.667 3220.66 500V22.9999C3220.66 18.3333 3221.99 14.6666 3224.66 12C3227.32 9.33329 3230.99 7.99995 3235.66 7.99995H3393.66C3398.32 7.99995 3401.99 9.33329 3404.66 12C3407.32 14.6666 3408.66 18.3333 3408.66 22.9999V518C3408.66 529.333 3411.32 538.333 3416.66 545C3421.99 551.667 3428.99 555 3437.66 555C3446.32 555 3452.99 551.667 3457.66 545C3462.99 538.333 3465.66 529.333 3465.66 518V22.9999C3465.66 18.3333 3466.99 14.6666 3469.66 12C3472.32 9.33329 3475.99 7.99995 3480.66 7.99995H3638.66C3643.32 7.99995 3646.99 9.33329 3649.66 12C3652.32 14.6666 3653.66 18.3333 3653.66 22.9999V500C3653.66 542.667 3644.66 580.333 3626.66 613C3608.66 645.667 3583.32 671 3550.66 689C3517.99 707 3480.32 716 3437.66 716ZM3913.1 716C3870.43 716 3833.1 708 3801.1 692C3769.1 676 3744.1 654 3726.1 626C3708.77 597.333 3700.1 564.667 3700.1 528V497C3700.1 492.333 3701.43 488.667 3704.1 486C3706.77 483.333 3710.43 482 3715.1 482H3871.1C3875.77 482 3879.43 483.333 3882.1 486C3884.77 488.667 3886.1 492.333 3886.1 497V519C3886.1 529.667 3888.77 538.333 3894.1 545C3899.43 551.667 3906.1 555 3914.1 555C3922.1 555 3928.77 552 3934.1 546C3939.43 540 3942.1 532.333 3942.1 523C3942.1 511.667 3936.77 500.667 3926.1 490C3915.43 478.667 3893.1 461 3859.1 437C3825.77 413.667 3798.1 392.333 3776.1 373C3754.77 353.667 3736.1 329.333 3720.1 300C3704.1 270.667 3696.1 237 3696.1 199C3696.1 159.667 3704.77 125 3722.1 95C3740.1 65 3765.1 41.6666 3797.1 25C3829.77 8.33332 3867.1 -4.29153e-06 3909.1 -4.29153e-06C3951.77 -4.29153e-06 3989.1 8.33332 4021.1 25C4053.77 41.6666 4078.77 65 4096.1 95C4114.1 125 4123.1 159.667 4123.1 199V221C4123.1 225.667 4121.77 229.333 4119.1 232C4116.43 234.667 4112.77 236 4108.1 236H3953.1C3948.43 236 3944.77 234.667 3942.1 232C3939.43 229.333 3938.1 225.667 3938.1 221V195C3938.1 185 3935.43 177 3930.1 171C3924.77 164.333 3917.77 161 3909.1 161C3900.43 161 3893.43 164.333 3888.1 171C3883.43 177.667 3881.1 186.667 3881.1 198C3881.1 211.333 3886.43 224.333 3897.1 237C3907.77 249 3929.1 266.667 3961.1 290C4003.77 321.333 4035.77 346.667 4057.1 366C4079.1 385.333 4096.1 407.333 4108.1 432C4120.77 456 4127.1 484.333 4127.1 517C4127.1 577.667 4107.43 626 4068.1 662C4028.77 698 3977.1 716 3913.1 716Z" fill="#0E0E0E"/>
</svg>
