<svg width="190" height="179" viewBox="0 0 190 179" fill="none" xmlns="http://www.w3.org/2000/svg">
<g clip-path="url(#clip0_571_462)">
<path d="M172.301 52.1994H104.947C104.918 49.0608 104.607 45.9128 104.017 42.8214C98.6318 14.4656 71.1774 -4.21959 42.8264 1.16556C29.0874 3.77554 17.1938 11.5819 9.32609 23.1357C1.45839 34.6941 -1.43949 48.6266 1.17049 62.3609C3.83239 76.3642 11.7662 88.3333 23.5512 96.1443L23.7872 105.735C23.8816 109.6 26.0479 113.149 29.4461 114.999C31.0319 115.863 32.8301 116.321 34.6424 116.321C36.6389 116.321 38.5975 115.769 40.3013 114.73L56.6078 104.772C58.5523 104.626 60.4921 104.366 62.3705 104.012C62.885 103.913 63.4041 103.804 63.9327 103.691V160.568C63.9327 170.196 71.7674 178.031 81.3955 178.031H172.306C181.934 178.031 189.769 170.196 189.769 160.568V69.6622C189.769 60.0341 181.934 52.1994 172.306 52.1994H172.301Z" fill="#FCFEDB"/>
<path d="M172.301 178.267H81.3908C71.6305 178.267 63.692 170.328 63.692 160.568V103.984C63.2578 104.078 62.8283 104.163 62.4083 104.243C60.5393 104.597 58.6137 104.852 56.6786 105.003L40.4193 114.933C38.6778 115.995 36.6813 116.557 34.6377 116.557C32.7876 116.557 30.9516 116.09 29.3328 115.202C25.8638 113.315 23.6503 109.685 23.5512 105.74L23.3152 96.2718C11.5443 88.4325 3.60112 76.4067 0.93922 62.4035C-1.6802 48.6078 1.22712 34.614 9.12786 23.0036C17.0333 11.3932 28.9835 3.55854 42.7792 0.934399C56.5559 -1.68502 70.5403 1.23174 82.1648 9.14192C93.7894 17.0521 101.634 28.9976 104.248 42.7743C104.824 45.7996 105.136 48.8863 105.178 51.9588H172.297C182.057 51.9588 189.995 59.8973 189.995 69.6576V160.568C189.995 170.328 182.057 178.267 172.297 178.267H172.301ZM64.164 103.399V160.568C64.164 170.069 71.8901 177.795 81.3908 177.795H172.301C181.802 177.795 189.528 170.069 189.528 160.568V69.6623C189.528 60.1616 181.802 52.4355 172.301 52.4355H104.711V52.1995C104.678 49.0798 104.366 45.9365 103.786 42.864C101.19 29.21 93.4213 17.373 81.9005 9.53365C70.3798 1.69427 56.5181 -1.19418 42.8688 1.40165C29.1959 3.99747 17.3495 11.7661 9.51959 23.2726C1.68965 34.7745 -1.19407 48.6456 1.40175 62.3185C4.04477 76.2368 11.9597 88.1823 23.6833 95.9509L23.7872 96.017L24.0279 105.73C24.1223 109.511 26.2414 112.984 29.5641 114.792C31.1168 115.641 32.8726 116.085 34.6472 116.085C36.6011 116.085 38.5173 115.547 40.1833 114.528L56.537 104.541H56.5936C58.5287 104.39 60.4591 104.135 62.328 103.781C62.8378 103.682 63.3569 103.578 63.8855 103.46L64.1734 103.399H64.164Z" fill="black"/>
<path d="M47.6357 11.653L40.3249 13.1491C19.8982 17.3355 6.73499 37.2903 10.9213 57.7217L12.4175 65.0325C14.9991 77.6293 23.5842 87.4604 34.5716 92.1659L34.6613 94.4927L35.1191 106.179L45.0116 99.9393L52.7566 95.0544C54.1583 94.927 55.5695 94.7287 56.9854 94.4408L64.2962 92.9447C84.7229 88.7583 97.8908 68.8035 93.7045 48.3768L92.2083 41.066C88.022 20.6393 68.0672 7.47136 47.6404 11.6577L47.6357 11.653Z" fill="#934FFF"/>
<path d="M172.301 63.0549H81.3908C77.7416 63.0549 74.7833 66.0132 74.7833 69.6625V160.573C74.7833 164.222 77.7416 167.18 81.3908 167.18H172.301C175.95 167.18 178.909 164.222 178.909 160.573V69.6625C178.909 66.0132 175.95 63.0549 172.301 63.0549Z" fill="black"/>
<path d="M50.9914 46.0546C50.9914 46.0546 41.7314 32.6224 31.8484 39.8813C21.2385 47.6734 30.6873 63.154 39.2913 68.6335C45.3891 72.5131 53.035 75.8499 56.2538 76.7372C57.1175 76.9732 58.0379 76.7797 58.7269 76.2039C61.2284 74.1225 66.9675 68.4022 70.6252 62.21C75.4204 54.0969 80.1495 35.4778 66.8542 32.9622C54.8568 30.6968 50.9867 46.0546 50.9867 46.0546H50.9914Z" fill="black"/>
<path d="M157.543 101.643C157.543 101.643 149.279 102.79 143.431 102.375C137.026 101.921 134.19 101.45 132.868 96.39C131.547 91.3305 131.226 87.1017 130.669 84.2888C129.852 80.1779 125.34 77.8323 120.474 78.2948C116.288 78.6912 112.998 80.6216 112.994 86.0115C112.994 89.5323 113.938 98.1835 113.938 98.1835C113.938 98.1835 102.974 96.4514 98.2589 100.76C93.544 105.07 90.3771 112.116 91.6702 126.856C92.9587 141.595 101.921 150.6 112.994 151.719C124.066 152.837 128.168 150.237 136.668 150.383C144.729 150.237 152.45 150.86 152.45 150.86L157.543 101.648V101.643Z" fill="#934FFF"/>
<path d="M121.22 134.468C122.174 134.185 122.99 133.737 123.632 133.128C124.765 132.047 125.288 130.546 125.152 128.791C124.901 125.657 123.226 124.127 121.027 123.363C122.716 122.749 124.113 121.678 124.552 119.866C125.01 117.968 124.802 116.406 123.929 115.231C122.881 113.815 121.046 113.135 118.974 112.772C121.673 112.196 123.844 111.134 124.302 109.242C124.854 106.957 124.694 105.268 123.811 104.074C122.414 102.181 119.611 102.006 116.642 101.822C115.934 101.78 115.198 101.733 114.471 101.662L106.117 101.039L106.013 102.45L114.348 103.073C115.08 103.149 115.83 103.191 116.552 103.238C119.181 103.403 121.669 103.554 122.674 104.918C123.292 105.754 123.372 107.061 122.924 108.916C122.254 111.682 114.641 112.21 108.666 111.904L106.122 111.715L106.07 112.418L105.999 113.126H106.023C106.381 113.164 107.259 113.244 108.444 113.31L111.837 113.56C112.578 113.636 113.381 113.683 114.226 113.735C117.581 113.938 121.381 114.169 122.792 116.08C123.41 116.916 123.537 118.049 123.174 119.545C122.645 121.725 119.842 122.499 117.152 122.683C116.203 122.617 115.254 122.598 114.348 122.579C113.05 122.551 111.823 122.528 110.691 122.391L104.423 121.985L104.333 123.396L110.563 123.797C111.224 123.877 111.918 123.92 112.63 123.943C112.838 123.972 114.112 124.142 115.759 124.142C116.184 124.142 116.637 124.127 117.1 124.104C120.984 124.382 123.457 125.303 123.745 128.909C123.849 130.221 123.476 131.33 122.66 132.108C121.527 133.189 119.601 133.623 117.227 133.326C116.524 133.236 115.769 133.166 114.957 133.09C113.933 132.996 112.777 132.887 111.488 132.722L105.22 132.316L105.131 133.727L111.356 134.128C112.626 134.294 113.796 134.402 114.83 134.497C115.641 134.572 116.382 134.643 117.057 134.723C117.057 134.723 117.081 134.723 117.095 134.728C119.068 134.973 120.456 135.346 121.291 136.366C122.811 138.216 123.108 140.656 122.056 142.572C121.22 144.096 119.743 144.889 118.105 144.691C113.65 144.153 104.999 143.337 104.909 143.332L104.777 144.743C104.862 144.752 113.499 145.564 117.935 146.098C118.152 146.126 118.374 146.135 118.587 146.135C120.531 146.135 122.296 145.073 123.297 143.256C124.632 140.826 124.274 137.772 122.391 135.469C122.056 135.063 121.669 134.737 121.239 134.468H121.22Z" fill="black"/>
<path d="M126.846 88.5411C125.86 88.5411 124.977 87.8521 124.769 86.8515C124.378 84.9731 122.395 84.6474 122.169 84.6144C121.003 84.4822 120.177 83.4297 120.309 82.264C120.441 81.0982 121.508 80.2581 122.674 80.395C124.609 80.6168 128.106 82.0422 128.927 85.9784C129.168 87.1252 128.432 88.2532 127.28 88.4892C127.134 88.5176 126.988 88.5364 126.846 88.5364V88.5411Z" fill="white"/>
<path d="M14.8717 56.2113C14.8717 56.2113 14.8434 56.2113 14.8292 56.2113C13.6587 56.1877 12.7242 55.2202 12.7478 54.045C12.8045 51.1801 13.1726 48.3106 13.8475 45.526C14.1213 44.3838 15.2729 43.6853 16.4103 43.959C17.5525 44.2328 18.251 45.3797 17.9772 46.5218C17.3778 49.0091 17.0475 51.5671 16.9956 54.1299C16.972 55.291 16.028 56.2113 14.8717 56.2113V56.2113Z" fill="white"/>
<path d="M20.1011 37.8093C19.733 37.8093 19.3648 37.7149 19.025 37.5167C18.015 36.922 17.6799 35.6194 18.2746 34.6094C20.2899 31.1923 22.7913 28.1056 25.7081 25.4343C28.1812 23.1689 30.9847 20.5966 34.6047 19.2987C38.6589 17.8451 41.3727 17.2693 45.7761 16.9342C46.9513 16.8492 47.9661 17.7224 48.0557 18.8928C48.1454 20.0633 47.2675 21.0828 46.0971 21.1724C42.0806 21.4792 39.7302 21.9748 36.0394 23.301C33.2265 24.311 30.8667 26.4774 28.5776 28.5682C25.9724 30.9563 23.7352 33.7173 21.9323 36.771C21.5359 37.4412 20.8279 37.814 20.1011 37.814V37.8093Z" fill="white"/>
</g>
<defs>
<clipPath id="clip0_571_462">
<rect width="190" height="178.267" fill="white"/>
</clipPath>
</defs>
</svg>
