<svg width="128" height="168" viewBox="0 0 128 168" fill="none" xmlns="http://www.w3.org/2000/svg">
<g clip-path="url(#clip0_469_851)">
<path d="M125.745 24.5864C125.225 21.6226 124.151 15.5362 120.509 10.1928C116.845 4.81082 110.591 0.214844 99.8185 0.214844C96.1418 0.214844 90.7297 0.923569 85.8202 4.05055C80.8892 7.18612 76.5251 12.7271 74.9101 22.2626C74.7297 23.3365 74.4591 24.8527 74.1326 26.6825C72.8655 33.7826 70.7608 45.5775 69.8116 54.3571C69.4937 54.3013 69.1887 54.2497 68.8838 54.1982C65.1984 53.5625 62.4322 53.0857 57.1404 53.0814H57.0159C43.0647 53.0814 31.2526 56.3201 21.9232 62.763C9.02874 71.6586 1.81693 85.8932 0.429548 104.96C-0.846157 122.498 3.59089 137.042 13.6677 148.111C22.211 157.505 33.3402 162.208 42.4419 165.142C52.6604 168.436 100.544 170.798 115.561 138.283C125.513 116.734 127.042 90.6138 127.583 74.3646C128.314 51.6339 126.922 31.2441 125.745 24.5864Z" fill="#FCFEDB"/>
<path d="M58.6352 167.177C51.4319 167.177 45.5044 166.361 42.3775 165.352C34.2851 162.745 22.4902 158.132 13.5087 148.261C3.40618 137.158 -1.06953 122.584 0.214769 104.947C1.61074 85.76 8.8741 71.5039 21.8073 62.5826C31.1452 56.1353 42.9917 52.8623 57.0201 52.8623H57.1447C62.4537 52.8666 65.164 53.3348 68.9181 53.9834L69.6269 54.1036C70.589 45.3369 72.6722 33.6494 73.9222 26.6438L73.9393 26.5407C74.2572 24.7581 74.5192 23.2805 74.6996 22.2282C76.1256 13.7836 79.8282 7.60698 85.7042 3.87007C90.7297 0.670067 96.1546 0 99.8185 0C109.109 0 116.132 3.38899 120.685 10.0725C124.353 15.4545 125.436 21.5968 125.955 24.5477L125.745 24.5906L125.955 24.5519C127.128 31.2011 128.524 51.6381 127.798 74.3774C127.162 93.4056 125.221 117.876 115.754 138.382C107.679 155.872 90.356 162.706 77.2424 165.361C70.7436 166.675 64.2964 167.182 58.6352 167.182V167.177ZM57.0201 53.2918C43.0819 53.2918 31.3128 56.5348 22.0521 62.9348C9.23061 71.7788 2.02739 85.9275 0.644299 104.977C-0.631405 122.493 3.80564 136.956 13.8266 147.969C22.735 157.766 34.4612 162.345 42.5063 164.94C48.0515 166.726 62.4666 167.908 77.1565 164.935C90.167 162.302 107.361 155.524 115.363 138.197C124.8 117.764 126.737 93.3498 127.369 74.3603C128.099 51.651 126.707 31.2569 125.535 24.625C125.019 21.6913 123.95 15.6177 120.333 10.313C115.861 3.75409 108.963 0.42953 99.8185 0.42953C96.2105 0.42953 90.8714 1.09101 85.9361 4.23087C80.1675 7.90336 76.5294 13.9812 75.1248 22.2969C74.9487 23.3536 74.6824 24.8311 74.3646 26.618L74.3474 26.7211C73.0889 33.7826 70.9756 45.6032 70.0306 54.3785L70.0048 54.6062L68.8537 54.4086C65.1125 53.7643 62.415 53.3004 57.149 53.2918H57.0244H57.0201Z" fill="black"/>
<path d="M60.9847 156.684C60.9847 156.684 8.78388 155.649 12.4091 105.939C16.0515 55.8431 65.6451 63.4802 81.1425 68.1406C81.1425 68.1406 84.4886 34.4439 85.7901 26.7124C86.8252 20.5873 89.4067 13.5129 98.9637 13.5129C108.521 13.5129 112.533 18.0831 114.47 29.049C116.523 40.6635 119.62 105.901 105.944 133.382C93.5431 158.295 60.9804 156.68 60.9804 156.68L60.9847 156.684Z" fill="black"/>
<path d="M100.708 98.1349C100.218 98.0876 96.073 97.6882 90.4075 97.1727L92.8215 83.6339C92.9246 83.0498 92.538 82.4914 91.9538 82.3883C91.3697 82.2852 90.8113 82.6718 90.7082 83.2559L88.2599 96.9794C83.7928 96.5757 78.6298 96.129 73.6472 95.7295C73.673 95.6565 73.6945 95.5835 73.7074 95.5019L75.258 84.6304C75.3439 84.042 74.9358 83.5008 74.3474 83.4149C73.7546 83.3247 73.2177 83.737 73.1318 84.3255L71.5812 95.1969C71.564 95.3215 71.5726 95.446 71.5984 95.5663C65.1039 95.0637 59.142 94.6729 55.7487 94.6213L57.1748 84.6304C57.2607 84.042 56.8526 83.5008 56.2642 83.4149C55.6714 83.3247 55.1345 83.737 55.0486 84.3255L53.5624 94.733C49.5764 95.33 46.2862 98.2852 45.1479 102.473C44.1987 105.961 44.9117 109.466 46.9648 112.288C46.909 112.309 46.8532 112.331 46.8016 112.361C42.8327 114.599 38.7264 114.796 36.0891 112.881C34.1176 111.45 33.3401 109.096 33.9071 106.257C35.4362 98.573 38.0177 83.5996 38.0435 83.4492C38.1423 82.8651 37.7514 82.311 37.1672 82.2079C36.5831 82.1091 36.029 82.5 35.9259 83.0841C35.9001 83.2345 33.323 98.1778 31.7981 105.836C31.0679 109.492 32.1718 112.696 34.822 114.62C36.3984 115.763 38.3485 116.33 40.4617 116.33C42.8113 116.33 45.3713 115.63 47.8497 114.234C48.0301 114.131 48.1718 113.98 48.262 113.808C49.0566 114.599 49.9672 115.312 51.0024 115.922C55.3965 118.512 60.7184 119.873 65.3788 120.586C64.5412 120.81 63.6778 121.067 62.8059 121.364C53.1758 124.645 46.9047 131.26 44.6625 140.487C44.5208 141.062 44.8773 141.642 45.4529 141.784C45.5388 141.805 45.6247 141.814 45.7063 141.814C46.1917 141.814 46.6298 141.483 46.7501 140.993C48.8333 132.416 54.4472 126.501 63.4373 123.417C68.029 121.841 72.3887 121.441 74.7597 121.347C75.8722 121.36 76.5723 121.334 76.6969 121.33L76.7055 119.182C76.6196 119.182 75.9195 119.147 74.7769 119.19C70.4902 119.13 59.6274 118.512 52.0891 114.066C47.0765 111.111 46.2819 106.429 47.2054 103.036C48.2448 99.2259 51.3246 96.7604 55.0486 96.7604C64.2319 96.7604 100.128 100.231 100.489 100.27C101.081 100.325 101.605 99.896 101.661 99.3032C101.717 98.7147 101.288 98.1864 100.695 98.1306L100.708 98.1349Z" fill="#2CDD00"/>
<path d="M91.3353 30.5396C90.6523 30.5396 90.0811 30.0027 90.0467 29.3111C90.0338 29.0663 89.8019 23.3149 93.2209 20.0977C94.9605 18.4569 97.28 17.7825 100.115 18.0918C100.824 18.1691 101.335 18.8048 101.257 19.5135C101.18 20.2223 100.54 20.7291 99.8357 20.6561C97.7568 20.4327 96.1675 20.8623 94.9863 21.979C92.8601 23.9807 92.5552 27.8679 92.6196 29.1951C92.654 29.9082 92.1042 30.5095 91.3954 30.5439C91.374 30.5439 91.3525 30.5439 91.3353 30.5439V30.5396Z" fill="white"/>
<path d="M20.4843 96.6658C20.3941 96.6658 20.3039 96.6572 20.2137 96.6357C19.5179 96.4854 19.0754 95.8025 19.2258 95.1066C19.2687 94.9004 20.3468 89.9952 23.4652 84.7678C27.6617 77.7407 33.5592 73.5528 40.5305 72.6551C41.2306 72.5649 41.8835 73.0631 41.9737 73.7676C42.0639 74.472 41.5656 75.1206 40.8612 75.2108C25.9221 77.1351 21.7901 95.4631 21.7471 95.6478C21.6183 96.2535 21.0813 96.6658 20.4886 96.6658H20.4843Z" fill="white"/>
</g>
<defs>
<clipPath id="clip0_469_851">
<rect width="128" height="167.177" fill="white"/>
</clipPath>
</defs>
</svg>
